<?xml version="1.0" encoding="UTF-8"?>
<svg xmlns="http://www.w3.org/2000/svg" xmlns:xlink="http://www.w3.org/1999/xlink" width="12px" height="px" viewBox="0 0 12 13" version="1.1">
<g id="surface1">
<path style=" stroke:none;fill-rule:nonzero;fill:#fff;fill-opacity:1;" d="M 4.285156 0.8125 L 4.285156 1.625 L 7.714844 1.625 L 7.714844 0.8125 C 7.714844 0.363281 8.097656 0 8.570312 0 C 9.046875 0 9.429688 0.363281 9.429688 0.8125 L 9.429688 1.625 L 10.714844 1.625 C 11.425781 1.625 12 2.171875 12 2.84375 L 12 4.0625 L 0 4.0625 L 0 2.84375 C 0 2.171875 0.574219 1.625 1.285156 1.625 L 2.570312 1.625 L 2.570312 0.8125 C 2.570312 0.363281 2.953125 0 3.429688 0 C 3.902344 0 4.285156 0.363281 4.285156 0.8125 Z M 0 4.875 L 12 4.875 L 12 11.78125 C 12 12.453125 11.425781 13 10.714844 13 L 1.285156 13 C 0.574219 13 0 12.453125 0 11.78125 Z M 1.714844 7.71875 C 1.714844 7.941406 1.90625 8.125 2.144531 8.125 L 3 8.125 C 3.234375 8.125 3.429688 7.941406 3.429688 7.71875 L 3.429688 6.90625 C 3.429688 6.683594 3.234375 6.5 3 6.5 L 2.144531 6.5 C 1.90625 6.5 1.714844 6.683594 1.714844 6.90625 Z M 5.144531 7.71875 C 5.144531 7.941406 5.335938 8.125 5.570312 8.125 L 6.429688 8.125 C 6.664062 8.125 6.855469 7.941406 6.855469 7.71875 L 6.855469 6.90625 C 6.855469 6.683594 6.664062 6.5 6.429688 6.5 L 5.570312 6.5 C 5.335938 6.5 5.144531 6.683594 5.144531 6.90625 Z M 9 6.5 C 8.765625 6.5 8.570312 6.683594 8.570312 6.90625 L 8.570312 7.71875 C 8.570312 7.941406 8.765625 8.125 9 8.125 L 9.855469 8.125 C 10.09375 8.125 10.285156 7.941406 10.285156 7.71875 L 10.285156 6.90625 C 10.285156 6.683594 10.09375 6.5 9.855469 6.5 Z M 1.714844 10.96875 C 1.714844 11.191406 1.90625 11.375 2.144531 11.375 L 3 11.375 C 3.234375 11.375 3.429688 11.191406 3.429688 10.96875 L 3.429688 10.15625 C 3.429688 9.933594 3.234375 9.75 3 9.75 L 2.144531 9.75 C 1.90625 9.75 1.714844 9.933594 1.714844 10.15625 Z M 5.570312 9.75 C 5.335938 9.75 5.144531 9.933594 5.144531 10.15625 L 5.144531 10.96875 C 5.144531 11.191406 5.335938 11.375 5.570312 11.375 L 6.429688 11.375 C 6.664062 11.375 6.855469 11.191406 6.855469 10.96875 L 6.855469 10.15625 C 6.855469 9.933594 6.664062 9.75 6.429688 9.75 Z M 8.570312 10.96875 C 8.570312 11.191406 8.765625 11.375 9 11.375 L 9.855469 11.375 C 10.09375 11.375 10.285156 11.191406 10.285156 10.96875 L 10.285156 10.15625 C 10.285156 9.933594 10.09375 9.75 9.855469 9.75 L 9 9.75 C 8.765625 9.75 8.570312 9.933594 8.570312 10.15625 Z M 8.570312 10.96875 "/>
</g>
</svg>
